<svg width="81" height="76" viewBox="0 0 81 76" fill="none" xmlns="http://www.w3.org/2000/svg">
<path d="M4.2527 73.8831L1.84069 71.4887C1.52711 71.1774 1.35003 70.7543 1.34841 70.3125C1.34679 69.8706 1.52076 69.4462 1.83205 69.1326L33.1939 37.54L37.9707 42.2818L6.60878 73.8745C6.29749 74.188 5.87438 74.3651 5.43253 74.3667C4.99068 74.3684 4.56628 74.1944 4.2527 73.8831Z" fill="#A89BEB"/>
<path d="M5.42117 74.272C4.48366 74.2731 3.58378 73.9032 2.91815 73.243L2.48632 72.8112C2.15497 72.4829 1.8916 72.0924 1.7113 71.6622C1.531 71.232 1.4373 70.7705 1.43557 70.304C1.43384 69.8376 1.5241 69.3754 1.7012 68.9438C1.8783 68.5123 2.13876 68.1199 2.46766 67.7892L32.8557 37.1798C32.9478 37.0881 33.0723 37.0363 33.2023 37.0359C33.3318 37.0359 33.4562 37.0866 33.5488 37.1772L38.3256 41.9273C38.3713 41.9724 38.4076 42.0262 38.4323 42.0854C38.4571 42.1447 38.4699 42.2083 38.4699 42.2725C38.4699 42.3367 38.4571 42.4003 38.4323 42.4596C38.4076 42.5188 38.3713 42.5726 38.3256 42.6177L7.93752 73.2297C7.60768 73.561 7.21549 73.8236 6.7836 74.0025C6.3517 74.1814 5.88865 74.273 5.42117 74.272ZM3.17405 72.1155L3.60855 72.5473C3.84654 72.7851 4.12922 72.9734 4.44031 73.1015C4.75139 73.2296 5.08475 73.2949 5.42117 73.2937C5.759 73.2937 6.09346 73.2265 6.4051 73.0961C6.71674 72.9657 6.99934 72.7746 7.23646 72.534L37.286 42.2845L33.2023 38.2301L3.16339 68.4849C2.92418 68.7234 2.73438 69.0067 2.60488 69.3187C2.47538 69.6306 2.40871 69.9651 2.40871 70.3028C2.40871 70.6406 2.47538 70.9751 2.60488 71.287C2.73438 71.599 2.92418 71.8823 3.16339 72.1208L3.17405 72.1155Z" fill="#093F68"/>
<path d="M41.6231 53.0323C52.2066 53.0323 60.7863 44.4527 60.7863 33.8691C60.7863 23.2856 52.2066 14.706 41.6231 14.706C31.0396 14.706 22.46 23.2856 22.46 33.8691C22.46 44.4527 31.0396 53.0323 41.6231 53.0323Z" fill="#A89BEB"/>
<path d="M41.6205 53.5227C36.4474 53.4723 31.5029 51.3843 27.8595 47.7117C24.2161 44.039 22.1676 39.078 22.1585 33.9047C22.1494 28.7314 24.1803 23.7632 27.8108 20.0777C31.4412 16.3922 36.3784 14.2868 41.5512 14.2181H41.6258C46.7988 14.2686 51.7434 16.3566 55.3868 20.0292C59.0302 23.7019 61.0787 28.6629 61.0878 33.8362C61.0969 39.0094 59.066 43.9777 55.4355 47.6632C51.8051 51.3486 46.8679 53.4541 41.6951 53.5227H41.6205ZM41.6205 15.1964H41.5512C36.6368 15.2632 31.9469 17.2646 28.4985 20.7665C25.05 24.2684 23.121 28.9886 23.1298 33.9034C23.1386 38.8182 25.0844 43.5314 28.5453 47.021C32.0063 50.5105 36.7033 52.4952 41.6178 52.5444H41.6871C46.6015 52.4776 51.2914 50.4762 54.7398 46.9743C58.1883 43.4724 60.1173 38.7523 60.1085 33.8375C60.0997 28.9227 58.1539 24.2095 54.693 20.7199C51.2321 17.2303 46.535 15.2457 41.6205 15.1964Z" fill="#093F68"/>
<path d="M41.6232 47.3705C49.0798 47.3705 55.1246 41.3258 55.1246 33.8692C55.1246 26.4126 49.0798 20.3678 41.6232 20.3678C34.1666 20.3678 28.1218 26.4126 28.1218 33.8692C28.1218 41.3258 34.1666 47.3705 41.6232 47.3705Z" fill="white"/>
<path d="M41.6205 47.853C38.8583 47.8541 36.1576 47.0371 33.8592 45.5051C31.5607 43.9731 29.7675 41.7947 28.7056 39.2448C27.6438 36.6948 27.3609 33.8875 27.8927 31.177C28.4245 28.4664 29.7471 25.9741 31.6937 24.0143C33.3155 22.3787 35.316 21.1687 37.5177 20.492C39.7195 19.8153 42.0542 19.6927 44.3147 20.1351C46.5752 20.5775 48.6914 21.5713 50.4756 23.0281C52.2597 24.4849 53.6565 26.3598 54.542 28.4861C55.4275 30.6125 55.7742 32.9246 55.5513 35.2172C55.3285 37.5098 54.543 39.7118 53.2646 41.6279C51.9862 43.5439 50.2545 45.1147 48.2232 46.2006C46.1919 47.2866 43.9239 47.8542 41.6205 47.853ZM32.3894 24.7047C30.5757 26.5308 29.3442 28.8537 28.8509 31.3798C28.3575 33.9058 28.6245 36.5214 29.6179 38.8957C30.6113 41.27 32.2866 43.2963 34.4318 44.7184C36.577 46.1404 39.0958 46.8943 41.6696 46.8846C44.2433 46.8749 46.7563 46.102 48.8908 44.6639C51.0252 43.2257 52.6852 41.1868 53.6607 38.8051C54.6362 36.4234 54.8834 33.8058 54.371 31.2836C53.8586 28.7614 52.6097 26.4478 50.7822 24.6354C49.5759 23.4217 48.1405 22.4597 46.5593 21.8054C44.9781 21.151 43.2826 20.8174 41.5714 20.8239C39.8601 20.8303 38.1672 21.1767 36.591 21.8429C35.0147 22.5092 33.5866 23.4819 32.3894 24.7047Z" fill="#093F68"/>
<path d="M79.8507 37.9155H29.1506C29.0205 37.9155 28.8958 37.8638 28.8038 37.7719C28.7118 37.6799 28.6602 37.5551 28.6602 37.425C28.6602 37.295 28.7118 37.1702 28.8038 37.0782C28.8958 36.9862 29.0205 36.9346 29.1506 36.9346H79.8507C79.9808 36.9346 80.1056 36.9862 80.1976 37.0782C80.2895 37.1702 80.3412 37.295 80.3412 37.425C80.3412 37.5551 80.2895 37.6799 80.1976 37.7719C80.1056 37.8638 79.9808 37.9155 79.8507 37.9155Z" fill="#093F68"/>
<path d="M44.2943 29.892H35.0046V37.4251H44.2943V29.892Z" fill="#E6E2FF"/>
<path d="M44.2941 37.9156H35.0044C34.8743 37.9156 34.7496 37.8639 34.6576 37.7719C34.5656 37.6799 34.5139 37.5552 34.5139 37.4251V29.8894C34.5139 29.8251 34.5266 29.7614 34.5513 29.7021C34.576 29.6427 34.6122 29.5888 34.6577 29.5435C34.7033 29.4982 34.7574 29.4623 34.8169 29.4379C34.8764 29.4136 34.9401 29.4012 35.0044 29.4016H44.2941C44.4237 29.4016 44.5481 29.4529 44.64 29.5443C44.7319 29.6357 44.7839 29.7597 44.7846 29.8894V37.4251C44.7846 37.5552 44.7329 37.6799 44.6409 37.7719C44.5489 37.8639 44.4242 37.9156 44.2941 37.9156ZM35.4975 36.9346H43.8089V30.3798H35.4922L35.4975 36.9346Z" fill="#093F68"/>
<path d="M58.6752 23.14H49.3855V37.4251H58.6752V23.14Z" fill="#C3B8FC"/>
<path d="M58.6779 37.9156H49.3855C49.2554 37.9156 49.1307 37.8639 49.0387 37.7719C48.9467 37.6799 48.895 37.5552 48.895 37.4251V23.14C48.8957 23.0104 48.9477 22.8863 49.0396 22.7949C49.1315 22.7035 49.2559 22.6522 49.3855 22.6522H58.6779C58.8072 22.6522 58.9313 22.7036 59.0228 22.7951C59.1143 22.8866 59.1657 23.0107 59.1657 23.14V37.4251C59.166 37.4894 59.1537 37.5531 59.1293 37.6126C59.1049 37.6721 59.0691 37.7262 59.0237 37.7718C58.9784 37.8173 58.9245 37.8535 58.8651 37.8782C58.8058 37.9029 58.7421 37.9156 58.6779 37.9156ZM49.8813 36.9346H58.1927V23.6252H49.876L49.8813 36.9346Z" fill="#093F68"/>
<path d="M73.0587 14.2102H63.769V37.4251H73.0587V14.2102Z" fill="#A89BEB"/>
<path d="M73.0587 37.9156H63.769C63.639 37.9156 63.5142 37.8639 63.4222 37.7719C63.3302 37.6799 63.2786 37.5552 63.2786 37.4251V14.2102C63.2786 14.0801 63.3302 13.9554 63.4222 13.8634C63.5142 13.7714 63.639 13.7197 63.769 13.7197H73.0587C73.1888 13.7197 73.3136 13.7714 73.4056 13.8634C73.4975 13.9554 73.5492 14.0801 73.5492 14.2102V37.4251C73.5492 37.5552 73.4975 37.6799 73.4056 37.7719C73.3136 37.8639 73.1888 37.9156 73.0587 37.9156ZM64.2622 36.9346H72.5736V14.7007H64.2595L64.2622 36.9346Z" fill="#093F68"/>
<path d="M36.0892 26.3068C35.9854 26.3078 35.884 26.2757 35.7997 26.2151C35.7155 26.1545 35.6527 26.0686 35.6206 25.9699C35.5885 25.8712 35.5887 25.7648 35.6212 25.6663C35.6537 25.5677 35.7168 25.4821 35.8013 25.4218L62.2549 6.33595H59.4587C59.3352 6.32683 59.2197 6.27134 59.1355 6.18061C59.0512 6.08988 59.0044 5.97064 59.0044 5.84681C59.0044 5.72298 59.0512 5.60374 59.1355 5.51301C59.2197 5.42229 59.3352 5.36679 59.4587 5.35767H63.769C63.8726 5.35724 63.9736 5.38978 64.0574 5.45058C64.1412 5.51137 64.2036 5.59727 64.2353 5.69584C64.2671 5.79441 64.2667 5.90052 64.2341 5.99883C64.2015 6.09714 64.1385 6.18253 64.0542 6.24265L36.3744 26.2135C36.2919 26.2746 36.1919 26.3074 36.0892 26.3068Z" fill="#093F68"/>
<path d="M62.8494 10.2437C62.8125 10.2444 62.7758 10.2399 62.7401 10.2304C62.6137 10.2012 62.504 10.1231 62.4351 10.0132C62.3661 9.90324 62.3436 9.77049 62.3723 9.64396L63.2839 5.73616C63.2955 5.67061 63.3204 5.60811 63.3569 5.55247C63.3935 5.49683 63.441 5.44921 63.4965 5.41252C63.5521 5.37583 63.6145 5.35083 63.68 5.33904C63.7455 5.32726 63.8128 5.32894 63.8776 5.34397C63.9425 5.35901 64.0036 5.38709 64.0572 5.4265C64.1109 5.46592 64.156 5.51584 64.1897 5.57323C64.2234 5.63062 64.2451 5.69428 64.2535 5.76033C64.2618 5.82637 64.2566 5.89343 64.2382 5.95741L63.3266 9.86521C63.3013 9.97284 63.2405 10.0688 63.1539 10.1375C63.0673 10.2062 62.96 10.2436 62.8494 10.2437Z" fill="#093F68"/>
<path d="M69.4279 10.5387V9.71373C69.1309 9.63672 68.8339 9.57072 68.5589 9.47172C68.0089 9.29572 67.5359 8.94372 67.2169 8.47072C66.9529 8.05272 66.8209 7.56871 66.8319 7.07371H68.4379C68.5149 7.66771 68.8009 8.09672 69.4279 8.26172V6.08371C69.1089 5.98471 68.7789 5.9077 68.4599 5.7977C68.1079 5.6987 67.7889 5.5117 67.5249 5.2697C67.2499 4.9947 67.0629 4.6427 67.0079 4.2577C66.9089 3.78469 66.9419 3.30069 67.1069 2.86069C67.3489 2.21169 67.8659 1.69468 68.5149 1.46368C68.7789 1.37568 69.0539 1.30968 69.3289 1.25468C69.3619 1.24368 69.3839 1.24368 69.4279 1.23268V0.143677H70.935V0.253677C70.935 0.561679 70.935 0.88068 70.935 1.18868C70.935 1.26568 70.957 1.28768 71.034 1.30968C71.551 1.40868 72.035 1.63968 72.442 1.96969C72.871 2.32169 73.157 2.81669 73.245 3.36669C73.267 3.52069 73.289 3.66369 73.3 3.8287H71.661C71.65 3.37769 71.375 2.95969 70.946 2.79469V4.8297C71.001 4.8407 71.056 4.8627 71.122 4.8737C71.562 4.9617 71.991 5.0937 72.409 5.2807C73.036 5.55571 73.465 6.14971 73.52 6.83171C73.619 7.45871 73.465 8.09672 73.091 8.60272C72.794 9.02072 72.365 9.33972 71.881 9.50472C71.573 9.61473 71.265 9.68072 70.935 9.76873V10.5717L69.4279 10.5387ZM70.935 6.39171V8.28372C71.177 8.25072 71.408 8.14072 71.595 7.98671C71.947 7.70071 72.068 6.98571 71.551 6.67771C71.364 6.57871 71.155 6.47971 70.935 6.39171ZM69.4279 4.4557V2.61869C69.2299 2.70669 69.0429 2.80569 68.8559 2.91569C68.4379 3.19069 68.3719 3.9717 68.8999 4.2357C69.0649 4.3127 69.2409 4.3787 69.4279 4.4557Z" fill="#093F68"/>
</svg>
