<svg width="81" height="51" viewBox="0 0 81 51" fill="none" xmlns="http://www.w3.org/2000/svg">
<path d="M64.3236 3.06189H60.8381V10.5983H64.3236V3.06189Z" fill="#E6E2FF"/>
<path d="M64.2958 11.1365H60.8103C60.5336 11.1365 60.2847 10.9098 60.2847 10.6265V3.09013C60.2847 2.80681 60.506 2.55182 60.8103 2.55182H64.2958C64.5724 2.55182 64.8213 2.77847 64.8213 3.09013V10.5982C64.8213 10.8815 64.6 11.1365 64.2958 11.1365ZM61.3359 10.0882H63.7978V3.60011H61.3359V10.0882Z" fill="#093F68"/>
<path d="M65.0704 1.19189H60.0911V3.06182H65.0704V1.19189Z" fill="#E6E2FF"/>
<path d="M65.0429 3.6001H60.0913C59.8146 3.6001 59.5657 3.37344 59.5657 3.09012V1.22019C59.5657 0.936873 59.787 0.681885 60.0636 0.681885H65.0429C65.3195 0.681885 65.5685 0.908541 65.5685 1.22019V3.09012C65.5685 3.37344 65.3195 3.6001 65.0429 3.6001ZM60.5892 2.55181H64.5173V1.73018H60.5892V2.55181Z" fill="#093F68"/>
<path d="M65.5131 30.6008H39.7868C39.5102 30.6008 39.2612 30.3741 39.2612 30.0625V12.0715C39.2612 11.9016 39.3442 11.7316 39.5102 11.6182L52.3733 3.54355C52.5393 3.43022 52.733 3.43022 52.8989 3.54355L65.7621 11.6182C65.9004 11.7032 66.0111 11.8732 66.0111 12.0715V30.0625C66.0387 30.3458 65.7898 30.6008 65.5131 30.6008ZM40.2848 29.5525H64.9875V12.3832L52.6223 4.62017L40.2571 12.3832L40.2848 29.5525Z" fill="#093F68"/>
<path d="M67.5599 15.0746C67.0344 15.0746 66.5364 14.933 66.1215 14.6497L52.6497 5.64002L39.178 14.6497C38.0715 15.3863 36.6054 15.1596 35.7478 14.168C35.0286 13.2614 35.1669 11.9581 36.0245 11.2215C36.1075 11.1648 36.1904 11.0798 36.2734 11.0515L51.1836 1.10687C52.0688 0.540224 53.203 0.540224 54.0882 1.10687L68.9984 11.0515C69.9666 11.6464 70.2985 12.9214 69.7176 13.9414C69.6623 14.0263 69.607 14.1114 69.524 14.1963C69.0261 14.763 68.3068 15.103 67.5599 15.0746Z" fill="white"/>
<path d="M67.5598 15.613C66.9512 15.613 66.3426 15.443 65.8447 15.103L52.6772 6.2917L39.4821 15.103C38.1543 15.9813 36.4116 15.7263 35.388 14.508C34.9178 13.9414 34.7241 13.2048 34.8348 12.4681C34.9454 11.7032 35.388 11.0232 36.0519 10.5982L50.9345 0.653595C51.9857 -0.0263775 53.3411 -0.0263775 54.3923 0.653595L69.3025 10.5982C69.9388 11.0232 70.3814 11.7032 70.5197 12.4681C70.6303 13.2048 70.4367 13.9414 69.9664 14.508C69.3302 15.2163 68.4726 15.613 67.5598 15.613ZM52.6496 1.16358C52.2346 1.16358 51.8197 1.2769 51.4877 1.50356L36.5775 11.4482C36.1626 11.7032 35.886 12.1281 35.8306 12.5815C35.7753 13.0064 35.886 13.4597 36.1626 13.7997C36.8542 14.6214 38.016 14.763 38.9012 14.1964L52.3729 5.21508C52.5389 5.10175 52.7602 5.10175 52.9262 5.21508L66.3979 14.2247C66.7575 14.4514 67.1448 14.5647 67.5598 14.5647C68.1684 14.5647 68.7493 14.3097 69.1365 13.8281C69.4132 13.4881 69.5515 13.0348 69.4685 12.6098C69.3855 12.1281 69.1089 11.7032 68.7216 11.4765L53.8114 1.5319C53.4795 1.27691 53.0645 1.13525 52.6496 1.16358Z" fill="#093F68"/>
<path d="M56.8825 14.3947H48.5283V30.0624H56.8825V14.3947Z" fill="#E6E2FF"/>
<path d="M56.8819 30.6007H48.5278C48.2512 30.6007 48.0022 30.3741 48.0022 30.0624V14.3947C48.0022 14.1114 48.2235 13.8564 48.5278 13.8564H56.8819C57.1586 13.8564 57.4075 14.083 57.4075 14.3947V30.0624C57.3799 30.3457 57.1586 30.6007 56.8819 30.6007ZM49.0257 29.5524H56.3563V14.933H49.0257V29.5524Z" fill="#093F68"/>
<path d="M46.2597 24.141H41.9996C41.723 24.141 41.5017 23.9144 41.5017 23.631V18.0779C41.5017 17.7946 41.723 17.5396 42.0273 17.5396H46.2874C46.564 17.5396 46.813 17.7663 46.813 18.0779V23.631C46.7853 23.9144 46.5363 24.141 46.2597 24.141ZM42.5252 23.0927H45.7618V18.6162H42.5252V23.0927Z" fill="#093F68"/>
<path d="M63.2722 24.141H59.0122C58.7355 24.141 58.4866 23.9144 58.4866 23.6027V18.0779C58.4866 17.7946 58.7079 17.5396 59.0122 17.5396H63.2722C63.5489 17.5396 63.7978 17.7663 63.7978 18.0779V23.631C63.7978 23.9144 63.5489 24.141 63.2722 24.141ZM59.5378 23.0927H62.7743V18.6162H59.5378V23.0927Z" fill="#093F68"/>
<path d="M8.6497 50.0398L1.04248 31.8171L13.4252 25.9801C13.4252 25.9801 22.8026 17.1349 31.1156 18.3729C39.4286 19.6109 58.5392 22.4397 61.0152 25.095C63.4911 27.7503 61.0152 29.8734 61.0152 29.8734C61.0152 29.8734 62.0102 30.4924 63.7804 30.1395C65.5506 29.7866 70.598 25.1731 72.8599 22.862C75.6077 20.0534 81.5373 21.6269 79.5878 26.547C77.6383 31.4672 68.0902 40.8417 60.1272 44.1912C52.1642 47.5407 27.2252 43.1036 27.2252 43.1036L8.6497 50.0398Z" fill="#A89BEB"/>
<path d="M8.64927 50.5807C8.54223 50.5813 8.43744 50.55 8.3483 50.4907C8.25916 50.4315 8.18973 50.347 8.14887 50.248L0.541645 32.0254C0.488069 31.8965 0.486117 31.7519 0.536192 31.6216C0.586267 31.4913 0.684533 31.3853 0.810646 31.3254L13.1066 25.526C14.8874 23.9254 16.8134 22.4942 18.8597 21.2509C23.4617 18.4539 27.6066 17.3056 31.1846 17.8378L31.3552 17.8638C44.9296 19.8885 59.123 22.2806 61.3994 24.7277C62.2672 25.6706 62.6982 26.6685 62.6403 27.6954C62.5899 28.3945 62.3433 29.0652 61.9288 29.6304C62.5028 29.7407 63.0933 29.7329 63.6642 29.6073C65.1307 29.318 69.7992 25.2078 72.4632 22.4831C74.1032 20.8055 76.9754 20.4381 78.8613 21.6645C80.4724 22.7087 80.9295 24.6091 80.082 26.7466C78.0572 31.8345 68.3645 41.3074 60.3292 44.7002C52.5484 47.9861 29.5301 44.0726 27.2653 43.6763L8.8286 50.546C8.7713 50.5679 8.71061 50.5796 8.64927 50.5807ZM1.74203 32.089L8.94719 49.3398L27.0339 42.5974C27.1259 42.5618 27.2262 42.5528 27.3231 42.5714C27.5719 42.6177 52.1984 46.9506 59.9243 43.6908C66.3716 40.969 76.8221 32.063 79.0898 26.3359C79.7493 24.6669 79.4659 23.3248 78.2886 22.5612C76.9986 21.7253 74.7077 21.7426 73.2528 23.2294C71.7979 24.7161 66.039 30.2494 63.8841 30.6688C61.9316 31.0593 60.7775 30.3622 60.7284 30.3304C60.6561 30.286 60.5954 30.2251 60.5511 30.1527C60.5069 30.0803 60.4804 29.9985 60.4738 29.9139C60.468 29.8288 60.4819 29.7436 60.5146 29.6648C60.5472 29.586 60.5976 29.5158 60.6618 29.4598C61.1762 28.9783 61.4988 28.3269 61.5701 27.6259C61.6077 26.9086 61.2808 26.1797 60.6185 25.4653C58.2871 22.969 38.6125 20.039 31.2077 18.934L31.0342 18.908C23.0741 17.7221 13.8875 26.2867 13.7979 26.3735C13.7564 26.4131 13.7084 26.4453 13.6561 26.4689L1.74203 32.089Z" fill="#093F68"/>
<path d="M54.6223 32.6443C52.2071 32.6443 49.1034 31.9299 45.8349 31.1749C40.7528 30.018 35.4972 28.7944 33.108 30.4084C33.0492 30.4504 32.9826 30.4801 32.9121 30.4958C32.8417 30.5116 32.7687 30.5131 32.6977 30.5002C32.6266 30.4873 32.5588 30.4604 32.4984 30.4209C32.4379 30.3814 32.386 30.3302 32.3456 30.2704C32.3052 30.2105 32.2772 30.1431 32.2633 30.0723C32.2494 30.0014 32.2498 29.9285 32.2645 29.8578C32.2792 29.7871 32.308 29.72 32.349 29.6606C32.3901 29.6012 32.4426 29.5506 32.5035 29.5118C35.2918 27.6346 40.7789 28.8986 46.0981 30.1221C49.6009 30.9262 52.9071 31.6869 55.25 31.5423C59.1577 31.2993 60.5953 29.5552 60.6097 29.5378C60.6979 29.4247 60.8275 29.3512 60.9699 29.3335C61.1123 29.3159 61.2559 29.3556 61.369 29.4438C61.4822 29.532 61.5556 29.6616 61.5733 29.804C61.5909 29.9464 61.5512 30.0899 61.463 30.2031C61.3936 30.2898 59.7564 32.3464 55.3165 32.6241C55.0793 32.6385 54.8537 32.6443 54.6223 32.6443Z" fill="#093F68"/>
</svg>
