<svg width="75" height="70" viewBox="0 0 75 70" fill="none" xmlns="http://www.w3.org/2000/svg">
<path d="M3.44946 48.2545V56.6157C3.44946 59.8838 10.3464 62.5365 18.8349 62.5365C27.3235 62.5365 34.2204 59.8838 34.2204 56.6157V48.2545H3.44946Z" fill="#A89BEB"/>
<path d="M18.8349 62.9184C9.98555 62.9184 3.06738 60.1384 3.06738 56.5945V48.2332C3.06738 48.021 3.23715 47.8513 3.44937 47.8513H34.2203C34.4325 47.8513 34.6023 48.021 34.6023 48.2332V56.5945C34.6235 60.1384 27.6842 62.9184 18.8349 62.9184ZM3.85257 48.6365V56.5945C3.85257 59.5867 10.7283 62.1332 18.8561 62.1332C26.9839 62.1332 33.8596 59.5867 33.8596 56.5945V48.6365H3.85257Z" fill="#093F68"/>
<path d="M18.8349 54.1753C27.3321 54.1753 34.2204 51.5244 34.2204 48.2545C34.2204 44.9846 27.3321 42.3337 18.8349 42.3337C10.3378 42.3337 3.44946 44.9846 3.44946 48.2545C3.44946 51.5244 10.3378 54.1753 18.8349 54.1753Z" fill="#A89BEB"/>
<path d="M18.8349 54.5572C9.98555 54.5572 3.06738 51.7772 3.06738 48.2333C3.06738 44.6893 10.0068 41.9093 18.8349 41.9093C27.6629 41.9093 34.6023 44.6893 34.6023 48.2333C34.6023 51.7772 27.6842 54.5572 18.8349 54.5572ZM18.8349 42.7157C10.7071 42.7157 3.83135 45.2623 3.83135 48.2545C3.83135 51.2467 10.7071 53.7933 18.8349 53.7933C26.9626 53.7933 33.8383 51.2467 33.8383 48.2545C33.8383 45.2623 26.9839 42.7157 18.8349 42.7157Z" fill="#093F68"/>
<path d="M3.44946 39.9357V48.2969C3.44946 51.565 10.3464 54.2177 18.8349 54.2177C27.3235 54.2177 34.2204 51.565 34.2204 48.2969V39.9357H3.44946Z" fill="#A89BEB"/>
<path d="M18.8349 54.5997C9.98555 54.5997 3.06738 51.8197 3.06738 48.2757V39.9145C3.06738 39.7023 3.23715 39.5325 3.44937 39.5325H34.2203C34.4325 39.5325 34.6023 39.7023 34.6023 39.9145V48.2969C34.6235 51.8409 27.6842 54.5997 18.8349 54.5997ZM3.85257 40.3177V48.2969C3.85257 51.2892 10.7283 53.8357 18.8561 53.8357C26.9839 53.8357 33.8596 51.2892 33.8596 48.2969V40.3177H3.85257Z" fill="#093F68"/>
<path d="M18.8349 45.8565C27.3321 45.8565 34.2204 43.2057 34.2204 39.9357C34.2204 36.6658 27.3321 34.015 18.8349 34.015C10.3378 34.015 3.44946 36.6658 3.44946 39.9357C3.44946 43.2057 10.3378 45.8565 18.8349 45.8565Z" fill="#093F68"/>
<path d="M18.8349 46.2597C9.98555 46.2597 3.06738 43.4797 3.06738 39.9357C3.06738 36.3918 10.0068 33.6118 18.8349 33.6118C27.6629 33.6118 34.6023 36.3918 34.6023 39.9357C34.6023 43.4797 27.6842 46.2597 18.8349 46.2597ZM18.8349 34.3969C10.7071 34.3969 3.83135 36.9435 3.83135 39.9357C3.83135 42.9279 10.7071 45.4745 18.8349 45.4745C26.9626 45.4745 33.8383 42.9279 33.8383 39.9357C33.8383 36.9435 26.9839 34.3969 18.8349 34.3969Z" fill="#093F68"/>
<path d="M0.457031 30.0678V38.429C0.457031 41.6971 7.35397 44.3498 15.8425 44.3498C24.3311 44.3498 31.228 41.6971 31.228 38.429V30.0678H0.457031Z" fill="#A89BEB"/>
<path d="M15.8427 44.753C6.99336 44.753 0.0751953 41.973 0.0751953 38.429V30.0678C0.0751953 29.8556 0.244967 29.6858 0.45718 29.6858H31.2281C31.4404 29.6858 31.6101 29.8556 31.6101 30.0678V38.429C31.6101 41.973 24.692 44.753 15.8427 44.753ZM0.839166 30.471V38.429C0.839166 41.4212 7.71488 43.9678 15.8427 43.9678C23.9704 43.9678 30.8462 41.4212 30.8462 38.429V30.471H0.839166Z" fill="#093F68"/>
<path d="M15.8425 35.9886C24.3397 35.9886 31.228 33.3377 31.228 30.0678C31.228 26.7978 24.3397 24.147 15.8425 24.147C7.34535 24.147 0.457031 26.7978 0.457031 30.0678C0.457031 33.3377 7.34535 35.9886 15.8425 35.9886Z" fill="#A89BEB"/>
<path d="M15.8427 36.3918C6.99336 36.3918 0.0751953 33.6118 0.0751953 30.0678C0.0751953 26.5238 6.99336 23.7438 15.8427 23.7438C24.692 23.7438 31.6101 26.5238 31.6101 30.0678C31.6101 33.6118 24.692 36.3918 15.8427 36.3918ZM15.8427 24.529C7.71488 24.529 0.839166 27.0544 0.839166 30.0678C0.839166 33.0812 7.71488 35.6066 15.8427 35.6066C23.9704 35.6066 30.8462 33.0812 30.8462 30.0678C30.8462 27.0544 23.9704 24.529 15.8427 24.529Z" fill="#093F68"/>
<path d="M0.457031 21.7703V30.1315C0.457031 33.3996 7.35397 36.0522 15.8425 36.0522C24.3311 36.0522 31.228 33.3996 31.228 30.1315V21.7703H0.457031Z" fill="#A89BEB"/>
<path d="M15.8427 36.4342C6.99336 36.4342 0.0751953 33.6542 0.0751953 30.1102V21.7702C0.0751953 21.558 0.244967 21.3882 0.45718 21.3882H31.2281C31.4404 21.3882 31.6101 21.558 31.6101 21.7702V30.1314C31.6101 33.6542 24.692 36.4342 15.8427 36.4342ZM0.839166 22.1522V30.1314C0.839166 33.1237 7.71488 35.6702 15.8427 35.6702C23.9704 35.6702 30.8462 33.1449 30.8462 30.1314V22.1522H0.839166Z" fill="#093F68"/>
<path d="M15.8425 27.6909C24.3397 27.6909 31.228 25.0401 31.228 21.7702C31.228 18.5002 24.3397 15.8494 15.8425 15.8494C7.34535 15.8494 0.457031 18.5002 0.457031 21.7702C0.457031 25.0401 7.34535 27.6909 15.8425 27.6909Z" fill="#A89BEB"/>
<path d="M15.8427 28.073C6.99336 28.073 0.0751953 25.293 0.0751953 21.749C0.0751953 18.205 6.99336 15.425 15.8427 15.425C24.692 15.425 31.6101 18.205 31.6101 21.749C31.6101 25.293 24.692 28.073 15.8427 28.073ZM15.8427 16.2315C7.71488 16.2315 0.839166 18.7568 0.839166 21.7702C0.839166 24.7837 7.71488 27.309 15.8427 27.309C23.9704 27.309 30.8462 24.7837 30.8462 21.7702C30.8462 18.7568 23.9704 16.2315 15.8427 16.2315Z" fill="#093F68"/>
<path d="M37.4036 45.8564V54.2177C37.4036 57.4857 44.3005 60.1384 52.789 60.1384C61.2776 60.1384 68.1745 57.4857 68.1745 54.2177V45.8564H37.4036Z" fill="#A89BEB"/>
<path d="M52.7889 60.5417C43.9396 60.5417 37.0002 57.7617 37.0002 54.2177V45.8565C37.0002 45.6443 37.17 45.4745 37.3822 45.4745H68.1532C68.3654 45.4745 68.5352 45.6443 68.5352 45.8565V54.2177C68.5776 57.7617 61.6382 60.5417 52.7889 60.5417ZM37.7854 46.2597V54.2177C37.7854 57.2099 44.6612 59.7565 52.7889 59.7565C60.9167 59.7565 67.7924 57.2099 67.7924 54.2177V46.2597H37.7854Z" fill="#093F68"/>
<path d="M52.789 51.7772C61.2862 51.7772 68.1745 49.1264 68.1745 45.8565C68.1745 42.5865 61.2862 39.9357 52.789 39.9357C44.2919 39.9357 37.4036 42.5865 37.4036 45.8565C37.4036 49.1264 44.2919 51.7772 52.789 51.7772Z" fill="#A89BEB"/>
<path d="M52.7889 52.1805C43.9396 52.1805 37.0002 49.4005 37.0002 45.8565C37.0002 42.3125 43.9396 39.5325 52.7889 39.5325C61.6382 39.5325 68.5564 42.3125 68.5564 45.8565C68.5564 49.4005 61.6382 52.1805 52.7889 52.1805ZM52.7889 40.3177C44.6612 40.3177 37.7854 42.8643 37.7854 45.8565C37.7854 48.8487 44.6612 51.3953 52.7889 51.3953C60.9167 51.3953 67.7924 48.8487 67.7924 45.8565C67.7924 42.8643 60.9167 40.3177 52.7889 40.3177Z" fill="#093F68"/>
<path d="M37.4036 37.5589V45.9201C37.4036 49.1882 44.3005 51.8409 52.789 51.8409C61.2776 51.8409 68.1745 49.1882 68.1745 45.9201V37.5589H37.4036Z" fill="#A89BEB"/>
<path d="M52.7889 52.2229C43.9396 52.2229 37.0002 49.4429 37.0002 45.899V37.5377C37.0002 37.3255 37.17 37.1558 37.3822 37.1558H68.1532C68.3654 37.1558 68.5352 37.3255 68.5352 37.5377V45.899C68.5776 49.4429 61.6382 52.2229 52.7889 52.2229ZM37.7854 37.941V45.899C37.7854 48.8912 44.6612 51.4377 52.7889 51.4377C60.9167 51.4377 67.7924 48.8912 67.7924 45.899V37.941H37.7854Z" fill="#093F68"/>
<path d="M52.789 43.4797C61.2862 43.4797 68.1745 40.8289 68.1745 37.5589C68.1745 34.289 61.2862 31.6382 52.789 31.6382C44.2919 31.6382 37.4036 34.289 37.4036 37.5589C37.4036 40.8289 44.2919 43.4797 52.789 43.4797Z" fill="#A89BEB"/>
<path d="M52.7889 43.8617C43.9396 43.8617 37.0002 41.0817 37.0002 37.5377C37.0002 33.9937 43.9396 31.2137 52.7889 31.2137C61.6382 31.2137 68.5564 33.9937 68.5564 37.5377C68.5564 41.0817 61.6382 43.8617 52.7889 43.8617ZM52.7889 32.0202C44.6612 32.0202 37.7854 34.5455 37.7854 37.5589C37.7854 40.5724 44.6612 43.0977 52.7889 43.0977C60.9167 43.0977 67.7924 40.5511 67.7924 37.5589C67.7924 34.5667 60.9167 32.0202 52.7889 32.0202Z" fill="#093F68"/>
<path d="M37.4036 29.2401V37.6013C37.4036 40.8694 44.3005 43.5221 52.789 43.5221C61.2776 43.5221 68.1745 40.8694 68.1745 37.6013V29.2401H37.4036Z" fill="#A89BEB"/>
<path d="M52.7889 43.9041C43.9396 43.9041 37.0002 41.1241 37.0002 37.5802V29.219C37.0002 29.0067 37.17 28.837 37.3822 28.837H68.1532C68.3654 28.837 68.5352 29.0067 68.5352 29.219V37.5802C68.5776 41.1454 61.6382 43.9041 52.7889 43.9041ZM37.7854 29.6222V37.5802C37.7854 40.5724 44.6612 43.1189 52.7889 43.1189C60.9167 43.1189 67.7924 40.5724 67.7924 37.5802V29.6222H37.7854Z" fill="#093F68"/>
<path d="M52.789 35.1609C61.2862 35.1609 68.1745 32.5101 68.1745 29.2402C68.1745 25.9702 61.2862 23.3194 52.789 23.3194C44.2919 23.3194 37.4036 25.9702 37.4036 29.2402C37.4036 32.5101 44.2919 35.1609 52.789 35.1609Z" fill="#093F68"/>
<path d="M52.7889 35.5641C43.9396 35.5641 37.0002 32.7841 37.0002 29.2402C37.0002 25.6962 43.9396 22.9162 52.7889 22.9162C61.6382 22.9162 68.5564 25.6962 68.5564 29.2402C68.5564 32.7841 61.6382 35.5641 52.7889 35.5641ZM52.7889 23.7226C44.6612 23.7226 37.7854 26.248 37.7854 29.2614C37.7854 32.2748 44.6612 34.8002 52.7889 34.8002C60.9167 34.8002 67.7924 32.2536 67.7924 29.2614C67.7924 26.2692 60.9167 23.7014 52.7889 23.7226Z" fill="#093F68"/>
<path d="M33.3503 19.733V28.0942C33.3503 31.3623 40.2473 34.0149 48.7358 34.0149C57.2244 34.0149 64.1213 31.3623 64.1213 28.0942V19.733H33.3503Z" fill="#A89BEB"/>
<path d="M48.7357 34.4181C39.8864 34.4181 32.9683 31.6381 32.9683 28.0942V19.7329C32.9683 19.5207 33.138 19.351 33.3502 19.351H64.1212C64.3334 19.351 64.5032 19.5207 64.5032 19.7329V28.0942C64.5032 31.6381 57.585 34.4181 48.7357 34.4181ZM33.7322 20.1361V28.1154C33.7322 31.1076 40.608 33.6541 48.7357 33.6541C56.8635 33.6541 63.7392 31.1076 63.7392 28.1154V20.1361H33.7322Z" fill="#093F68"/>
<path d="M48.7358 25.6537C57.233 25.6537 64.1213 23.0029 64.1213 19.733C64.1213 16.463 57.233 13.8122 48.7358 13.8122C40.2387 13.8122 33.3503 16.463 33.3503 19.733C33.3503 23.0029 40.2387 25.6537 48.7358 25.6537Z" fill="#093F68"/>
<path d="M48.7357 26.057C39.8864 26.057 32.9683 23.277 32.9683 19.733C32.9683 16.1891 39.8864 13.4091 48.7357 13.4091C57.585 13.4091 64.5032 16.1891 64.5032 19.733C64.5032 23.277 57.585 26.057 48.7357 26.057ZM48.7357 14.1942C40.608 14.1942 33.7322 16.7196 33.7322 19.733C33.7322 22.7465 40.608 25.2718 48.7357 25.2718C56.8635 25.2718 63.7392 22.7252 63.7392 19.733C63.7392 16.7408 56.8635 14.1942 48.7357 14.1942Z" fill="#093F68"/>
<path d="M36.3213 10.9898V19.351C36.3213 22.6191 43.2182 25.2718 51.7068 25.2718C60.1953 25.2718 67.0923 22.6191 67.0923 19.351V10.9898H36.3213Z" fill="#A89BEB"/>
<path d="M51.7067 25.6537C42.8574 25.6537 35.9392 22.8737 35.9392 19.3297V10.9685C35.9392 10.7563 36.109 10.5865 36.3212 10.5865H67.0922C67.3044 10.5865 67.4741 10.7563 67.4741 10.9685V19.3297C67.4741 22.8949 60.556 25.6537 51.7067 25.6537ZM36.7032 11.3717V19.351C36.7032 22.3432 43.5789 24.8897 51.7067 24.8897C59.8345 24.8897 66.7102 22.3644 66.7102 19.351V11.3717H36.7032Z" fill="#093F68"/>
<path d="M51.7068 16.9105C60.2039 16.9105 67.0923 14.2597 67.0923 10.9898C67.0923 7.71984 60.2039 5.06903 51.7068 5.06903C43.2096 5.06903 36.3213 7.71984 36.3213 10.9898C36.3213 14.2597 43.2096 16.9105 51.7068 16.9105Z" fill="#A89BEB"/>
<path d="M51.7067 17.3138C42.8574 17.3138 35.9392 14.5338 35.9392 10.9898C35.9392 7.44583 42.8574 4.66583 51.7067 4.66583C60.556 4.66583 67.4741 7.44583 67.4741 10.9898C67.4741 14.5338 60.556 17.3138 51.7067 17.3138ZM51.7067 5.47224C43.5789 5.47224 36.7032 8.01881 36.7032 11.011C36.7032 14.0032 43.5789 16.5498 51.7067 16.5498C59.8345 16.5498 66.7102 14.0245 66.7102 11.011C66.7102 7.99759 59.8345 5.45102 51.7067 5.47224Z" fill="#093F68"/>
<path d="M38.9529 68.9029C47.7314 68.9029 54.8477 61.7865 54.8477 53.0081C54.8477 44.2296 47.7314 37.1133 38.9529 37.1133C30.1744 37.1133 23.0581 44.2296 23.0581 53.0081C23.0581 61.7865 30.1744 68.9029 38.9529 68.9029Z" fill="#A89BEB"/>
<path d="M38.9528 69.2849C29.9549 69.2849 22.676 61.9847 22.676 53.0081C22.676 44.0315 29.9762 36.7313 38.9528 36.7313C47.9507 36.7313 55.2296 44.0103 55.2296 53.0081C55.2296 61.9847 47.9294 69.2849 38.9528 69.2849ZM38.9528 37.4953C30.4006 37.4953 23.4612 44.4559 23.4612 53.0081C23.4612 61.5603 30.4218 68.4997 38.974 68.4997C47.5262 68.4997 54.4656 61.5603 54.4656 53.0081C54.4656 44.4347 47.505 37.4953 38.9528 37.4953Z" fill="#093F68"/>
<path d="M38.9526 66.4624C31.5252 66.4624 25.4983 60.4355 25.4983 53.0081C25.4983 45.5806 31.5252 39.5537 38.9526 39.5537C46.3801 39.5537 52.407 45.5806 52.407 53.0081C52.407 60.4355 46.3801 66.4412 38.9526 66.4624ZM38.9526 40.3177C31.9496 40.3177 26.2835 46.005 26.2835 53.0081C26.2835 60.0111 31.9708 65.6772 38.9739 65.6772C45.9769 65.6772 51.643 59.9899 51.643 53.0081C51.6218 46.005 45.9557 40.3389 38.9526 40.3177Z" fill="#093F68"/>
<path d="M37.4882 63.0458V61.4542C36.9153 61.3057 36.3423 61.1783 35.8117 60.9873C34.7507 60.6478 33.8382 59.9687 33.2227 59.0562C32.7134 58.2498 32.4588 57.3161 32.48 56.3611H35.5783C35.7269 57.507 36.2786 58.3347 37.4882 58.653V54.4512C36.8728 54.2602 36.2362 54.1116 35.6207 53.8994C34.9417 53.7084 34.3262 53.3477 33.8169 52.8808C33.2864 52.3503 32.9256 51.6712 32.8195 50.9284C32.6285 50.0159 32.6922 49.0822 33.0105 48.2333C33.4774 46.9813 34.4748 45.9838 35.7269 45.5382C36.2362 45.3684 36.7667 45.2411 37.2972 45.135C37.3609 45.1138 37.4033 45.1138 37.4882 45.0926V42.9916H40.3956V43.2039C40.3956 43.798 40.3956 44.4135 40.3956 45.0077C40.3956 45.1562 40.438 45.1987 40.5865 45.2411C41.584 45.4321 42.5177 45.8777 43.3029 46.5144C44.1305 47.1935 44.6823 48.1484 44.852 49.2095C44.8945 49.5066 44.9369 49.7825 44.9581 50.1008H41.7962C41.7749 49.2307 41.2444 48.4243 40.4168 48.106V52.0319C40.5229 52.0532 40.629 52.0956 40.7563 52.1168C41.6052 52.2866 42.4328 52.5413 43.2392 52.902C44.4488 53.4325 45.2765 54.5785 45.3826 55.8942C45.5736 57.1038 45.2765 58.3347 44.5549 59.3109C43.982 60.1173 43.1543 60.7327 42.2206 61.051C41.6264 61.2632 41.0322 61.3906 40.3956 61.5603V63.1095L37.4882 63.0458ZM40.3956 55.0454V58.6954C40.8624 58.6318 41.3081 58.4196 41.6688 58.1225C42.3479 57.5707 42.5813 56.1913 41.5839 55.5971C41.2232 55.4061 40.82 55.2151 40.3956 55.0454ZM37.4882 51.3104V47.7664C37.1062 47.9362 36.7455 48.1272 36.3847 48.3394C35.5783 48.87 35.451 50.3767 36.4696 50.886C36.7879 51.0345 37.1275 51.1619 37.4882 51.3104Z" fill="#FFBC0E"/>
<path d="M4.12829 8.1886C4.12829 8.1886 4.27684 10.8413 0.966309 11.7326C0.966309 11.7326 3.47043 11.6901 4.2344 15.2978C4.2344 15.2978 4.51027 11.7962 7.50249 11.4567C7.50249 11.4567 4.70127 11.6901 4.12829 8.1886Z" fill="#FFBC0E"/>
<path d="M4.23468 15.7009C4.04369 15.7009 3.89514 15.5736 3.8527 15.4038C3.17361 12.1569 1.03026 12.1357 0.987815 12.1357C0.796822 12.1357 0.627051 11.9872 0.60583 11.7962C0.584608 11.6052 0.711937 11.4142 0.881708 11.3718C3.83148 10.5866 3.74659 8.31588 3.74659 8.20977C3.72537 7.99755 3.87392 7.80656 4.08613 7.78534C4.29835 7.76412 4.48934 7.91267 4.51056 8.12488C5.01987 11.2232 7.35422 11.0747 7.46033 11.0747C7.67254 11.0534 7.86353 11.2232 7.86353 11.4354C7.88476 11.6476 7.73621 11.8174 7.52399 11.8386C4.91377 12.1357 4.61667 15.2128 4.59545 15.3401C4.57422 15.5311 4.42568 15.6797 4.23468 15.7009ZM2.21865 11.6688C2.87652 11.9872 3.66171 12.6238 4.19224 13.8546C4.48934 13.0482 5.01987 12.1145 5.99605 11.5415C5.16842 11.1808 4.53178 10.5229 4.17102 9.69527C3.76781 10.5653 3.08873 11.2656 2.21865 11.6688Z" fill="#093F68"/>
<path d="M70.6574 31.0652C70.6574 31.0652 70.8272 34.1211 67.0286 35.1397C67.0286 35.1397 69.9147 35.0972 70.7847 39.2566C70.7847 39.2566 71.1031 35.2246 74.5409 34.8214C74.5197 34.8426 71.3153 35.1185 70.6574 31.0652Z" fill="#FFBC0E"/>
<path d="M70.7638 39.6598C70.5728 39.6598 70.4242 39.5325 70.3818 39.3415C69.5754 35.5429 67.05 35.5216 67.0076 35.5429C66.8166 35.5429 66.6468 35.3943 66.6256 35.2033C66.6044 35.0123 66.7317 34.8213 66.9015 34.7789C70.3393 33.8451 70.2545 31.2137 70.2545 31.0864C70.2545 30.8742 70.4242 30.6832 70.6364 30.6832C70.8274 30.6832 70.9972 30.8105 71.0397 31.0015C71.6338 34.6516 74.3714 34.4393 74.4987 34.4393C74.7109 34.4181 74.9019 34.5879 74.9232 34.8001C74.9444 35.0123 74.7958 35.1821 74.5836 35.2245C71.5277 35.5853 71.1882 39.1505 71.167 39.299C71.1458 39.49 70.9972 39.6386 70.8062 39.6598H70.7638ZM68.3233 35.0972C69.1085 35.458 70.0847 36.2007 70.7213 37.7499C70.8062 37.4952 70.9123 37.2618 71.0184 37.0284C71.4216 36.1371 72.0795 35.4155 72.9284 34.9274C71.9097 34.503 71.1033 33.6966 70.7001 32.678C70.2332 33.7603 69.3844 34.6091 68.3233 35.0972Z" fill="#093F68"/>
<path d="M54.7202 9.92871C54.7202 9.92871 54.8899 12.9846 51.0913 14.0032C51.0913 14.0032 53.9774 13.9608 54.8475 18.1202C54.8475 18.1202 55.1658 14.0881 58.6037 13.6849C58.6037 13.7061 55.378 13.982 54.7202 9.92871Z" fill="#FFBC0E"/>
<path d="M54.8476 18.5234C54.6566 18.5234 54.5081 18.3961 54.4657 18.2263C53.6805 14.4701 51.1763 14.4277 51.0915 14.4277C50.8792 14.4277 50.7095 14.2579 50.7095 14.0457C50.7095 13.8759 50.8368 13.7061 51.0066 13.6637C54.4444 12.7512 54.3595 10.0985 54.3595 9.97118C54.3383 9.75897 54.4869 9.56798 54.6991 9.54675C54.9113 9.52553 55.1023 9.67408 55.1235 9.8863C55.7177 13.5364 58.4553 13.3242 58.5614 13.3242C58.7736 13.3029 58.9646 13.4515 58.9858 13.6849C59.007 13.8971 58.8585 14.0881 58.6463 14.1093C55.5904 14.4701 55.2508 18.0353 55.2296 18.1839C55.2084 18.3748 55.0599 18.5234 54.8689 18.5446L54.8476 18.5234ZM52.386 13.9608C53.1712 14.3216 54.1473 15.0643 54.784 16.6135C54.8689 16.3588 54.975 16.1254 55.0811 15.8919C55.4843 15.0006 56.1421 14.2791 56.991 13.791C55.9724 13.3666 55.166 12.5602 54.7628 11.5416C54.3171 12.6239 53.4683 13.4939 52.386 13.9608Z" fill="#093F68"/>
<path d="M28.2573 0.527649C28.2573 0.527649 28.427 3.58352 24.6284 4.60215C24.6284 4.60215 27.5145 4.55971 28.3846 8.71909C28.3846 8.71909 28.7029 4.68703 32.1408 4.28383C32.1196 4.30505 28.9151 4.58093 28.2573 0.527649Z" fill="#FFBC0E"/>
<path d="M28.3633 9.12227C28.1723 9.12227 28.0237 8.99494 27.9813 8.82517C27.1961 5.06899 24.7556 5.02654 24.6283 5.02654C24.4161 5.02654 24.2463 4.85677 24.2251 4.64456C24.2251 4.47479 24.3524 4.30502 24.5222 4.26258C27.9601 3.35006 27.8752 0.697387 27.8752 0.570059C27.8539 0.357845 28.0025 0.166853 28.2147 0.145632C28.4269 0.124411 28.6179 0.27296 28.6391 0.485173C29.2333 4.13525 31.9709 3.92303 32.077 3.92303C32.2892 3.90181 32.4802 4.05036 32.5014 4.2838C32.5226 4.49601 32.3741 4.687 32.1619 4.70822C29.106 5.06899 28.7665 8.63418 28.7452 8.78273C28.724 8.97372 28.5755 9.12227 28.3845 9.14349H28.3633V9.12227ZM25.9016 4.55967C26.6868 4.92044 27.663 5.66319 28.2996 7.21235C28.3845 6.95769 28.4906 6.72425 28.5967 6.49082C28.9999 5.59952 29.6578 4.87799 30.5066 4.3899C29.488 3.96548 28.6816 3.15907 28.2784 2.14044C27.8327 3.22273 26.9839 4.07158 25.9016 4.55967Z" fill="#093F68"/>
</svg>
