<svg width="63" height="74" viewBox="0 0 63 74" fill="none" xmlns="http://www.w3.org/2000/svg">
<path d="M52.2499 0.880615H1.22998V67.3104H52.2499V0.880615Z" fill="#A89BEB"/>
<path d="M52.2834 68.0474H1.22991C0.827917 68.0474 0.49292 67.7124 0.49292 67.3104C0.49292 67.3104 0.49292 67.3104 0.49292 67.2769V0.880607C0.49292 0.478611 0.827917 0.143616 1.22991 0.143616H52.2499C52.6519 0.143616 52.9869 0.478611 52.9869 0.880607V67.3104C53.0204 67.6789 52.7524 68.0139 52.3839 68.0474C52.3504 68.0474 52.3169 68.0474 52.2834 68.0474ZM2.0004 66.5734H51.5464V1.6176H2.0004V66.5734Z" fill="#093F68"/>
<path d="M58.4477 6.54211H7.42773V72.9719H58.4477V6.54211Z" fill="white"/>
<path d="M58.4474 73.7089H7.42742C7.02543 73.7089 6.69043 73.3739 6.69043 72.9719V6.54211C6.69043 6.14012 7.02543 5.80511 7.42742 5.80511H58.4474C58.8494 5.80511 59.1844 6.14012 59.1844 6.54211V72.9719C59.1844 73.4074 58.8494 73.7089 58.4474 73.7089C58.4474 73.7424 58.4474 73.7424 58.4474 73.7089ZM8.16441 72.2014H57.7104V7.2791H8.16441V72.2014Z" fill="#093F68"/>
<path d="M18.9849 18.334H15.501V21.8179H18.9849V18.334Z" fill="#093F68"/>
<path d="M26.7904 18.334H23.3064V21.8179H26.7904V18.334Z" fill="#093F68"/>
<path d="M34.5621 18.334H31.0781V21.8179H34.5621V18.334Z" fill="#093F68"/>
<path d="M44.4784 32.7388H15.5012C15.0992 32.7053 14.7642 32.3368 14.7977 31.9348C14.8312 31.5663 15.1327 31.2648 15.5012 31.2313H44.4449C44.8469 31.2648 45.1819 31.6333 45.1484 32.0353C45.1484 32.4038 44.8469 32.7053 44.4784 32.7388Z" fill="#093F68"/>
<path d="M51.7477 39.6733H15.5011C15.0991 39.7068 14.7306 39.4053 14.6971 38.9698C14.6636 38.5678 14.9651 38.1993 15.4006 38.1658C15.4341 38.1658 15.4676 38.1658 15.5011 38.1658H51.7477C52.1497 38.1658 52.4847 38.5008 52.4847 38.9028C52.5182 39.2713 52.2167 39.6063 51.8482 39.6398C51.8147 39.6733 51.7812 39.6733 51.7477 39.6733Z" fill="#093F68"/>
<path d="M48.3309 46.6077H15.5012C15.0992 46.5742 14.7642 46.2057 14.7977 45.7702C14.8312 45.4017 15.1327 45.1002 15.5012 45.0667H48.3309C48.7664 45.0332 49.1014 45.3347 49.1348 45.7702C49.1684 46.2057 48.8669 46.5407 48.4314 46.5742H48.3309V46.6077Z" fill="#093F68"/>
<path d="M31.0786 53.5757H15.5012C15.0992 53.5422 14.7642 53.1737 14.7977 52.7382C14.8312 52.3697 15.1327 52.0682 15.5012 52.0347H31.0116C31.447 52.0347 31.782 52.3697 31.782 52.7717C31.782 53.1737 31.514 53.5087 31.1121 53.5422H31.0786V53.5757Z" fill="#093F68"/>
<path d="M61.9316 67.478L61.2281 68.885C60.9936 69.354 60.4241 69.5215 59.9551 69.354L42.6023 60.9455L44.1098 57.8301L61.4626 66.2385C61.9316 66.473 62.0991 67.009 61.9316 67.478Z" fill="#A89BEB"/>
<path d="M59.9886 69.9569C59.6201 69.9569 59.2516 69.8564 58.9166 69.7224L42.2672 61.6155C42.0997 61.5485 41.9657 61.381 41.8987 61.2135C41.8317 61.0125 41.8317 60.8115 41.9322 60.644L43.4397 57.5285C43.6072 57.16 44.0427 56.9926 44.4112 57.1601L61.0605 65.2335C62.3 65.7695 62.836 67.2434 62.3 68.4494C61.898 69.3874 60.9935 69.9569 59.9886 69.9569ZM43.5737 60.6105L59.5866 68.3489C60.089 68.5834 60.6585 68.3824 60.893 67.9134C61.1275 67.4109 60.9265 66.8414 60.4575 66.6069L44.4782 58.8685L43.5737 60.6105Z" fill="#093F68"/>
<path d="M43.3728 67.7795C48.0166 67.7795 51.7812 64.0149 51.7812 59.371C51.7812 54.7272 48.0166 50.9626 43.3728 50.9626C38.7289 50.9626 34.9644 54.7272 34.9644 59.371C34.9644 64.0149 38.7289 67.7795 43.3728 67.7795Z" fill="#A89BEB"/>
<path d="M43.3391 68.5164C41.9656 68.5164 40.5921 68.2149 39.3526 67.6119C34.7967 65.4009 32.9207 59.907 35.1317 55.3845C37.3426 50.8621 42.8366 48.9526 47.359 51.1636C51.915 53.3746 53.791 58.8685 51.58 63.391C50.508 65.5684 48.6655 67.2099 46.3875 68.0139C45.4161 68.3489 44.3776 68.5164 43.3391 68.5164ZM40.0226 66.2719C43.8081 68.1144 48.3975 66.5399 50.24 62.7545C52.0825 58.969 50.508 54.3796 46.7225 52.5371C42.9371 50.6946 38.3476 52.2691 36.5051 56.0545C34.6627 59.84 36.2371 64.3959 40.0226 66.2719Z" fill="#093F68"/>
<path d="M43.3726 64.6974C46.3143 64.6974 48.699 62.3127 48.699 59.371C48.699 56.4293 46.3143 54.0446 43.3726 54.0446C40.4309 54.0446 38.0461 56.4293 38.0461 59.371C38.0461 62.3127 40.4309 64.6974 43.3726 64.6974Z" fill="white"/>
<path d="M43.3391 65.4679C39.9891 65.4679 37.2756 62.7545 37.2756 59.4045C37.2756 56.0545 39.9891 53.3411 43.3391 53.3411C46.689 53.3411 49.4025 56.0545 49.4025 59.4045C49.4025 60.3425 49.2015 61.247 48.7995 62.0845C47.761 64.1615 45.6505 65.5014 43.3391 65.4679ZM43.3391 54.8151C40.8266 54.8151 38.7831 56.892 38.7831 59.4045C38.7831 61.917 40.8601 63.9605 43.3726 63.9605C45.885 63.9605 47.9285 61.8835 47.9285 59.371C47.9285 57.629 46.9235 56.0545 45.349 55.284C44.7126 54.9491 44.0426 54.8151 43.3391 54.8151Z" fill="#093F68"/>
</svg>
